<svg width="44" height="75" viewBox="0 0 44 75" fill="none" xmlns="http://www.w3.org/2000/svg">
<path d="M12.3956 20.2806C17.8482 21.9359 21.8369 27.2293 21.8369 33.504V74.0898" stroke="#111111" stroke-miterlimit="10"/>
<path d="M12.3956 20.2806C17.8482 21.9359 21.8369 27.2293 21.8369 33.504V74.0898" stroke="#111111" stroke-miterlimit="10"/>
<path d="M29.818 20.8252C25.1278 22.9139 21.8366 27.8041 21.8366 33.5036V74.0898" stroke="#111111" stroke-miterlimit="10"/>
<path d="M8.76917 31.1082C15.9861 31.1082 21.8368 37.2688 21.8368 44.8679V74.0898" stroke="#111111" stroke-miterlimit="10"/>
<path d="M34.9046 31.1082C27.6876 31.1082 21.8369 37.2688 21.8369 44.8679V74.0898" stroke="#111111" stroke-miterlimit="10"/>
<path d="M8.76917 42.4729C15.9861 42.4729 21.8368 48.6335 21.8368 56.2327" stroke="#111111" stroke-miterlimit="10"/>
<path d="M34.9046 42.4728C27.6876 42.4728 21.8369 48.6333 21.8369 56.2325V74.0896" stroke="#111111" stroke-miterlimit="10"/>
<path d="M21.837 0.733406C21.837 0.733406 -1.30009 19.956 1.14569 38.7868C3.59146 57.6171 21.837 57.5613 21.837 57.5613C21.837 57.5613 40.0825 57.6171 42.5283 38.7868C44.9741 19.956 21.837 0.733406 21.837 0.733406Z" stroke="#111111" stroke-miterlimit="10"/>
</svg>
