<svg width="17" height="14" viewBox="0 0 17 14" fill="none" xmlns="http://www.w3.org/2000/svg">
<path d="M8.99702 13.803L15.241 7.49903C16.0512 6.67212 16.5035 5.55969 16.5003 4.40205C16.4972 3.2444 16.0387 2.13448 15.224 1.31203C14.8244 0.904356 14.3476 0.580225 13.8215 0.358492C13.2955 0.13676 12.7306 0.0218535 12.1597 0.0204576C11.5888 0.0190618 11.0233 0.131204 10.4961 0.350361C9.96898 0.569519 9.49066 0.891315 9.08902 1.29703L8.49302 1.90003L7.88802 1.29003C7.48891 0.882895 7.01283 0.559174 6.48748 0.33769C5.96213 0.116206 5.39799 0.00138142 4.82786 -0.000107404C4.25774 -0.00159623 3.693 0.110281 3.1665 0.329018C2.64 0.547754 2.16225 0.868986 1.76102 1.27403C0.0730159 2.97903 0.0810159 5.75003 1.77702 7.46303L8.05402 13.803C8.31402 14.066 8.73702 14.066 8.99702 13.803ZM9.80002 2.00003C10.1087 1.68841 10.4764 1.44134 10.8815 1.27321C11.2867 1.10509 11.7212 1.01927 12.1599 1.02076C12.5985 1.02225 13.0325 1.11101 13.4365 1.28189C13.8405 1.45276 14.2064 1.70232 14.513 2.01603C15.1422 2.65137 15.4966 3.50856 15.4995 4.40275C15.5025 5.29694 15.154 6.15649 14.529 6.79603V6.79803L8.52502 12.858L2.48702 6.75903C1.17402 5.43303 1.17302 3.28903 2.47202 1.97703C2.78033 1.66598 3.14745 1.41938 3.55199 1.25158C3.95653 1.08377 4.39041 0.998124 4.82837 0.999613C5.26632 1.0011 5.69961 1.0897 6.103 1.26025C6.50639 1.4308 6.87182 1.67989 7.17802 1.99303L8.13802 2.96303C8.18451 3.01005 8.23988 3.04737 8.3009 3.07284C8.36192 3.09832 8.42739 3.11143 8.49352 3.11143C8.55964 3.11143 8.62511 3.09832 8.68613 3.07284C8.74715 3.04737 8.80252 3.01005 8.84902 2.96303L9.80002 2.00003Z" fill="#1F1F1F"/>
</svg>
