<svg width="81" height="28" viewBox="0 0 81 28" fill="none" xmlns="http://www.w3.org/2000/svg">
<path d="M10.6606 5.33941V4.40403C10.883 4.44313 11.1762 4.4797 11.496 4.4797C12.1899 4.4797 12.7551 4.31152 13.1762 3.97989C14.2692 3.11905 14.1888 1.28369 14.1849 1.206L14.1731 0.974744L13.951 0.909174C13.9277 0.902299 13.3716 0.740264 12.6982 0.740264C12.0044 0.740264 11.4391 0.9084 11.018 1.24003C10.8169 1.3985 10.6557 1.58997 10.5262 1.79734C10.1787 0.754358 9.19407 0 8.03585 0H6.90689V0.653725H8.03585C9.12266 0.653725 10.0069 1.53793 10.0069 2.62478V3.838C10.0066 3.86847 10.0067 3.89541 10.0069 3.91866V5.33946C5.56257 5.51176 2 9.18047 2 13.6662C2 18.2615 5.73849 22 10.3338 22C14.9291 22 18.6675 18.2615 18.6675 13.6662C18.6675 9.18047 15.1049 5.51176 10.6606 5.33941ZM10.7345 3.09477C10.8149 2.66676 10.9997 2.08664 11.4226 1.75355C11.7255 1.5149 12.1547 1.39399 12.6982 1.39399C13.0302 1.39399 13.3333 1.44095 13.531 1.48087C13.5251 1.64261 13.5074 1.87176 13.4598 2.12519C13.3793 2.5532 13.121 2.99744 12.6982 3.33053C12.3952 3.56918 12.0396 3.82602 11.4961 3.82602C11.1641 3.82602 10.861 3.77905 10.6633 3.73913C10.6692 3.57736 10.6868 3.34825 10.7345 3.09477ZM10.3337 20.7059C6.09895 20.7059 3.53963 17.4996 3.53963 13.2647C3.53963 9.02984 6.09891 6.6 10.3337 6.6C14.5686 6.6 17.1279 9.02989 17.1279 13.2647C17.1279 17.4995 14.5685 20.7059 10.3337 20.7059Z" fill="white"/>
<path d="M11.0698 17.1494C10.4297 17.4162 9.75277 17.5248 9.05763 17.4722L9.02687 18.2366C9.7934 18.2945 10.54 18.1747 11.2462 17.8804L11.0698 17.1494Z" fill="white"/>
<path d="M14.4244 13.2158C14.2612 14.685 13.3824 15.9791 12.0736 16.6776L12.5436 17.4006C13.9862 16.6306 14.9549 15.2038 15.1348 13.5838L14.4244 13.2158Z" fill="white"/>
<path d="M19.48 14.324C19.48 15.596 19.268 16.776 18.844 17.864C18.428 18.944 17.836 19.88 17.068 20.672C16.3 21.464 15.376 22.084 14.296 22.532C13.216 22.972 12.016 23.192 10.696 23.192C9.384 23.192 8.188 22.972 7.108 22.532C6.028 22.084 5.1 21.464 4.324 20.672C3.556 19.88 2.96 18.944 2.536 17.864C2.112 16.776 1.9 15.596 1.9 14.324C1.9 13.052 2.112 11.876 2.536 10.796C2.96 9.708 3.556 8.768 4.324 7.976C5.1 7.184 6.028 6.568 7.108 6.128C8.188 5.68 9.384 5.456 10.696 5.456C11.576 5.456 12.404 5.56 13.18 5.768C13.956 5.968 14.668 6.256 15.316 6.632C15.964 7 16.544 7.452 17.056 7.988C17.576 8.516 18.016 9.108 18.376 9.764C18.736 10.42 19.008 11.132 19.192 11.9C19.384 12.668 19.48 13.476 19.48 14.324ZM16.18 14.324C16.18 13.372 16.052 12.52 15.796 11.768C15.54 11.008 15.176 10.364 14.704 9.836C14.232 9.308 13.656 8.904 12.976 8.624C12.304 8.344 11.544 8.204 10.696 8.204C9.848 8.204 9.084 8.344 8.404 8.624C7.732 8.904 7.156 9.308 6.676 9.836C6.204 10.364 5.84 11.008 5.584 11.768C5.328 12.52 5.2 13.372 5.2 14.324C5.2 15.276 5.328 16.132 5.584 16.892C5.84 17.644 6.204 18.284 6.676 18.812C7.156 19.332 7.732 19.732 8.404 20.012C9.084 20.292 9.848 20.432 10.696 20.432C11.544 20.432 12.304 20.292 12.976 20.012C13.656 19.732 14.232 19.332 14.704 18.812C15.176 18.284 15.54 17.644 15.796 16.892C16.052 16.132 16.18 15.276 16.18 14.324ZM24.4319 12.824C24.8159 12.088 25.2719 11.512 25.7999 11.096C26.3279 10.672 26.9519 10.46 27.6719 10.46C28.2399 10.46 28.6959 10.584 29.0399 10.832L28.8479 13.052C28.8079 13.196 28.7479 13.3 28.6679 13.364C28.5959 13.42 28.4959 13.448 28.3679 13.448C28.2479 13.448 28.0679 13.428 27.8279 13.388C27.5959 13.348 27.3679 13.328 27.1439 13.328C26.8159 13.328 26.5239 13.376 26.2679 13.472C26.0119 13.568 25.7799 13.708 25.5719 13.892C25.3719 14.068 25.1919 14.284 25.0319 14.54C24.8799 14.796 24.7359 15.088 24.5999 15.416V23H21.6359V10.688H23.3759C23.6799 10.688 23.8919 10.744 24.0119 10.856C24.1319 10.96 24.2119 11.152 24.2519 11.432L24.4319 12.824ZM36.9289 17.744C36.0729 17.784 35.3529 17.86 34.7689 17.972C34.1849 18.076 33.7169 18.212 33.3649 18.38C33.0129 18.548 32.7609 18.744 32.6089 18.968C32.4569 19.192 32.3809 19.436 32.3809 19.7C32.3809 20.22 32.5329 20.592 32.8369 20.816C33.1489 21.04 33.5529 21.152 34.0489 21.152C34.6569 21.152 35.1809 21.044 35.6209 20.828C36.0689 20.604 36.5049 20.268 36.9289 19.82V17.744ZM30.1369 12.404C31.5529 11.108 33.2569 10.46 35.2489 10.46C35.9689 10.46 36.6129 10.58 37.1809 10.82C37.7489 11.052 38.2289 11.38 38.6209 11.804C39.0129 12.22 39.3089 12.72 39.5089 13.304C39.7169 13.888 39.8209 14.528 39.8209 15.224V23H38.4769C38.1969 23 37.9809 22.96 37.8289 22.88C37.6769 22.792 37.5569 22.62 37.4689 22.364L37.2049 21.476C36.8929 21.756 36.5889 22.004 36.2929 22.22C35.9969 22.428 35.6889 22.604 35.3689 22.748C35.0489 22.892 34.7049 23 34.3369 23.072C33.9769 23.152 33.5769 23.192 33.1369 23.192C32.6169 23.192 32.1369 23.124 31.6969 22.988C31.2569 22.844 30.8769 22.632 30.5569 22.352C30.2369 22.072 29.9889 21.724 29.8129 21.308C29.6369 20.892 29.5489 20.408 29.5489 19.856C29.5489 19.544 29.6009 19.236 29.7049 18.932C29.8089 18.62 29.9769 18.324 30.2089 18.044C30.4489 17.764 30.7569 17.5 31.1329 17.252C31.5089 17.004 31.9689 16.788 32.5129 16.604C33.0649 16.42 33.7049 16.272 34.4329 16.16C35.1609 16.04 35.9929 15.968 36.9289 15.944V15.224C36.9289 14.4 36.7529 13.792 36.4009 13.4C36.0489 13 35.5409 12.8 34.8769 12.8C34.3969 12.8 33.9969 12.856 33.6769 12.968C33.3649 13.08 33.0889 13.208 32.8489 13.352C32.6089 13.488 32.3889 13.612 32.1889 13.724C31.9969 13.836 31.7809 13.892 31.5409 13.892C31.3329 13.892 31.1569 13.84 31.0129 13.736C30.8689 13.624 30.7529 13.496 30.6649 13.352L30.1369 12.404ZM45.3844 12.2C45.6324 11.952 45.8924 11.724 46.1644 11.516C46.4444 11.3 46.7364 11.12 47.0404 10.976C47.3524 10.824 47.6844 10.708 48.0364 10.628C48.3884 10.54 48.7724 10.496 49.1884 10.496C49.8604 10.496 50.4564 10.612 50.9764 10.844C51.4964 11.068 51.9284 11.388 52.2724 11.804C52.6244 12.212 52.8884 12.704 53.0644 13.28C53.2484 13.848 53.3404 14.476 53.3404 15.164V23H50.3764V15.164C50.3764 14.412 50.2044 13.832 49.8604 13.424C49.5164 13.008 48.9924 12.8 48.2884 12.8C47.7764 12.8 47.2964 12.916 46.8484 13.148C46.4004 13.38 45.9764 13.696 45.5764 14.096V23H42.6124V10.688H44.4244C44.8084 10.688 45.0604 10.868 45.1804 11.228L45.3844 12.2ZM60.6593 16.544C61.0273 16.544 61.3473 16.496 61.6193 16.4C61.8913 16.296 62.1153 16.156 62.2913 15.98C62.4753 15.804 62.6113 15.592 62.6993 15.344C62.7953 15.096 62.8433 14.824 62.8433 14.528C62.8433 13.92 62.6593 13.44 62.2913 13.088C61.9313 12.728 61.3873 12.548 60.6593 12.548C59.9313 12.548 59.3833 12.728 59.0153 13.088C58.6553 13.44 58.4753 13.92 58.4753 14.528C58.4753 14.816 58.5193 15.084 58.6073 15.332C58.7033 15.58 58.8393 15.796 59.0153 15.98C59.1993 16.156 59.4273 16.296 59.6993 16.4C59.9793 16.496 60.2993 16.544 60.6593 16.544ZM64.0073 23.552C64.0073 23.312 63.9353 23.116 63.7913 22.964C63.6473 22.812 63.4513 22.696 63.2033 22.616C62.9553 22.528 62.6633 22.464 62.3273 22.424C61.9993 22.384 61.6473 22.356 61.2713 22.34C60.9033 22.316 60.5193 22.296 60.1193 22.28C59.7273 22.264 59.3433 22.232 58.9673 22.184C58.6393 22.368 58.3713 22.584 58.1633 22.832C57.9633 23.08 57.8633 23.368 57.8633 23.696C57.8633 23.912 57.9153 24.112 58.0193 24.296C58.1313 24.488 58.3033 24.652 58.5353 24.788C58.7753 24.924 59.0833 25.028 59.4593 25.1C59.8353 25.18 60.2953 25.22 60.8393 25.22C61.3913 25.22 61.8673 25.176 62.2673 25.088C62.6673 25.008 62.9953 24.892 63.2513 24.74C63.5153 24.596 63.7073 24.42 63.8273 24.212C63.9473 24.012 64.0073 23.792 64.0073 23.552ZM66.9593 11.108V12.212C66.9593 12.564 66.7473 12.78 66.3233 12.86L65.2193 13.064C65.3873 13.488 65.4713 13.952 65.4713 14.456C65.4713 15.064 65.3473 15.616 65.0993 16.112C64.8593 16.6 64.5233 17.016 64.0913 17.36C63.6593 17.704 63.1473 17.972 62.5553 18.164C61.9713 18.348 61.3393 18.44 60.6593 18.44C60.4193 18.44 60.1873 18.428 59.9633 18.404C59.7393 18.38 59.5193 18.348 59.3033 18.308C58.9193 18.54 58.7273 18.8 58.7273 19.088C58.7273 19.336 58.8393 19.52 59.0633 19.64C59.2953 19.752 59.5993 19.832 59.9753 19.88C60.3513 19.928 60.7793 19.96 61.2593 19.976C61.7393 19.984 62.2313 20.008 62.7353 20.048C63.2393 20.088 63.7313 20.16 64.2113 20.264C64.6913 20.36 65.1193 20.516 65.4953 20.732C65.8713 20.948 66.1713 21.244 66.3953 21.62C66.6273 21.988 66.7433 22.464 66.7433 23.048C66.7433 23.592 66.6073 24.12 66.3353 24.632C66.0713 25.144 65.6833 25.6 65.1713 26C64.6673 26.4 64.0433 26.72 63.2993 26.96C62.5633 27.208 61.7233 27.332 60.7793 27.332C59.8513 27.332 59.0433 27.24 58.3553 27.056C57.6673 26.88 57.0953 26.64 56.6393 26.336C56.1833 26.04 55.8433 25.696 55.6193 25.304C55.3953 24.912 55.2833 24.504 55.2833 24.08C55.2833 23.504 55.4553 23.024 55.7993 22.64C56.1513 22.248 56.6313 21.936 57.2393 21.704C56.9113 21.536 56.6513 21.312 56.4593 21.032C56.2673 20.752 56.1713 20.384 56.1713 19.928C56.1713 19.744 56.2033 19.556 56.2673 19.364C56.3393 19.164 56.4393 18.968 56.5673 18.776C56.7033 18.584 56.8713 18.404 57.0713 18.236C57.2713 18.06 57.5073 17.904 57.7793 17.768C57.1553 17.432 56.6633 16.984 56.3033 16.424C55.9513 15.864 55.7753 15.208 55.7753 14.456C55.7753 13.848 55.8953 13.3 56.1353 12.812C56.3833 12.316 56.7233 11.896 57.1553 11.552C57.5953 11.2 58.1113 10.932 58.7033 10.748C59.3033 10.564 59.9553 10.472 60.6593 10.472C61.1873 10.472 61.6833 10.528 62.1473 10.64C62.6113 10.744 63.0353 10.9 63.4193 11.108H66.9593ZM80.023 10.688L73.315 26.384C73.227 26.592 73.111 26.748 72.967 26.852C72.831 26.964 72.619 27.02 72.331 27.02H70.123L72.427 22.076L67.447 10.688H70.051C70.283 10.688 70.463 10.744 70.591 10.856C70.727 10.968 70.827 11.096 70.891 11.24L73.507 17.624C73.595 17.84 73.667 18.056 73.723 18.272C73.787 18.488 73.847 18.708 73.903 18.932C73.975 18.708 74.047 18.488 74.119 18.272C74.191 18.048 74.271 17.828 74.359 17.612L76.831 11.24C76.895 11.08 76.999 10.948 77.143 10.844C77.295 10.74 77.463 10.688 77.647 10.688H80.023Z" fill="white"/>
</svg>
