<svg width="15" height="16" viewBox="0 0 15 16" fill="none" xmlns="http://www.w3.org/2000/svg">
<path d="M6.47757 2.42487C5.86869 2.41778 5.26446 2.53158 4.69987 2.75967C4.13529 2.98777 3.62157 3.32564 3.1885 3.75369C2.75543 4.18175 2.4116 4.69149 2.17694 5.25338C1.94227 5.81527 1.82144 6.41814 1.82144 7.02706C1.82144 7.63598 1.94227 8.23885 2.17694 8.80074C2.4116 9.36263 2.75543 9.87237 3.1885 10.3004C3.62157 10.7285 4.13529 11.0663 4.69987 11.2944C5.26446 11.5225 5.86869 11.6363 6.47757 11.6292C7.68886 11.6151 8.84575 11.124 9.69731 10.2625C10.5489 9.40096 11.0264 8.23843 11.0264 7.02706C11.0264 5.81569 10.5489 4.65316 9.69731 3.79162C8.84575 2.93008 7.68886 2.43899 6.47757 2.42487Z" stroke="white" stroke-width="0.8" stroke-miterlimit="10"/>
<path d="M9.91058 10.4612L13.125 13.6756" stroke="white" stroke-width="0.8" stroke-miterlimit="10" stroke-linecap="round"/>
</svg>
