<svg width="12" height="12" viewBox="0 0 12 12" fill="none" xmlns="http://www.w3.org/2000/svg">
<path d="M11.999 5.99925V5.99625C11.999 4.22083 11.2261 2.6264 9.99867 1.52994L9.99267 1.52495C9.97751 1.5086 9.96058 1.49401 9.94217 1.48145L9.94117 1.48095C8.85106 0.523754 7.44918 -0.00281573 5.9985 1.13245e-05C4.48263 1.13245e-05 3.09874 0.562987 2.04383 1.49195L2.05033 1.48645C2.03762 1.49609 2.02589 1.50698 2.01533 1.51895C1.38115 2.08052 0.873525 2.77094 0.526086 3.5435C0.178648 4.31607 -0.000673388 5.15365 1.90017e-06 6.00075C1.90017e-06 7.77567 0.771937 9.3701 1.99833 10.4671L2.00433 10.4721C2.02022 10.4901 2.03798 10.5063 2.05733 10.5206L2.05833 10.5211C3.14816 11.4768 4.54896 12.0026 5.9985 12C7.45481 12.0022 8.86162 11.4716 9.95367 10.5081L9.94717 10.5136C10.5923 9.95261 11.1095 9.25962 11.4637 8.48148C11.8178 7.70334 12.0007 6.8582 12 6.00325V5.99975L11.999 5.99925ZM9.76818 9.90158C9.47099 9.66117 9.15138 9.44987 8.81376 9.27061L8.78127 9.25461C9.08774 8.37115 9.27223 7.35269 9.28972 6.29324V6.28524H11.42C11.3482 7.65588 10.7583 8.94802 9.76968 9.90008L9.76818 9.90158ZM6.28548 9.14911C6.92692 9.18361 7.52637 9.32461 8.07933 9.5541L8.04333 9.5411C7.60037 10.5511 6.97692 11.245 6.28548 11.3975V9.14911ZM6.28548 8.57714V6.28524H8.71927C8.69996 7.23433 8.5354 8.17486 8.23131 9.07412L8.25081 9.00862C7.63009 8.75349 6.96991 8.60768 6.29947 8.57764L6.28598 8.57714H6.28548ZM6.28548 5.71326V3.42136C6.974 3.38994 7.65185 3.23921 8.28881 2.97588L8.24931 2.99038C8.52679 3.79985 8.69727 4.73281 8.71927 5.70276V5.71326H6.28548ZM6.28548 2.84939V0.601985C6.97692 0.754479 7.60037 1.44545 8.04333 2.4584C7.52637 2.6734 6.92692 2.81389 6.29997 2.84889L6.28548 2.84939ZM7.71236 0.849474C8.30148 1.04598 8.85246 1.34228 9.34122 1.72544L9.32972 1.71644C9.10824 1.89043 8.85976 2.05442 8.59778 2.19692L8.56979 2.21092C8.35809 1.7113 8.06703 1.24919 7.70786 0.842475L7.71236 0.847974V0.849474ZM5.71252 0.603485V2.84939C5.09582 2.81793 4.48908 2.68095 3.91867 2.4444L3.95467 2.4574C4.39963 1.44745 5.02208 0.753979 5.71352 0.601485L5.71252 0.603485ZM3.42871 2.20942C3.1577 2.0636 2.89947 1.89518 2.65678 1.70594L2.66878 1.71494C3.1433 1.34303 3.67705 1.05367 4.24765 0.858974L4.28564 0.847474C3.93588 1.24317 3.65089 1.69169 3.44121 2.17642L3.42871 2.20942ZM5.71352 3.42086V5.71276H3.27973C3.30173 4.73231 3.47221 3.79935 3.76919 2.92438L3.74969 2.98988C4.37017 3.24461 5.02998 3.39024 5.70003 3.42036L5.71352 3.42086ZM5.71352 6.28474V8.57664C5.025 8.60806 4.34715 8.7588 3.71019 9.02212L3.74969 9.00762C3.47221 8.19866 3.30173 7.2652 3.27973 6.29524V6.28474H5.71352ZM5.71352 9.14861V11.396C5.02208 11.2435 4.39863 10.5526 3.95567 9.5396C4.47263 9.32461 5.07208 9.18461 5.69903 9.14961L5.71352 9.14861ZM4.28864 11.1485C3.69967 10.9526 3.14871 10.657 2.65978 10.2746L2.67178 10.2836C2.89326 10.1096 3.14174 9.94558 3.40372 9.80309L3.43171 9.78909C3.64164 10.2889 3.9327 10.7506 4.29314 11.1555L4.28864 11.1505V11.1485ZM8.57028 9.78859C8.86026 9.94608 9.10874 10.1096 9.34222 10.2921L9.33022 10.2831C8.85569 10.655 8.32195 10.9443 7.75135 11.139L7.71336 11.1505C8.06312 10.755 8.34811 10.3067 8.55779 9.82208L8.57028 9.78959V9.78859ZM11.42 5.71326H9.28972C9.2744 4.67878 9.09588 3.65321 8.76077 2.6744L8.78127 2.74339C9.13444 2.55743 9.4688 2.33775 9.77968 2.08742L9.76768 2.09642C10.7542 3.04489 11.3444 4.33224 11.419 5.69876L11.42 5.71326ZM2.23082 2.09692C2.51879 2.33091 2.84226 2.5454 3.18524 2.72789L3.21773 2.74389C2.91126 3.62735 2.72677 4.64581 2.70928 5.70526V5.71326H0.578453C0.650294 4.34262 1.24022 3.05048 2.22882 2.09842L2.23082 2.09692ZM0.578953 6.28524H2.70928C2.7246 7.31972 2.90312 8.34529 3.23823 9.32411L3.21773 9.25511C2.84226 9.4546 2.51929 9.66909 2.21932 9.91108L2.23132 9.90208C1.24477 8.95361 0.654629 7.66626 0.579953 6.29974L0.579453 6.28574L0.578953 6.28524Z" fill="#2C2A29"/>
</svg>
